<?xml version="1.0" encoding="utf-8"?>
<!-- Generator: Adobe Illustrator 24.3.0, SVG Export Plug-In . SVG Version: 6.00 Build 0)  -->
<svg version="1.1" id="Layer_1" xmlns="http://www.w3.org/2000/svg" xmlns:xlink="http://www.w3.org/1999/xlink" x="0px" y="0px"
	 viewBox="0 0 1024 1024" style="enable-background:new 0 0 1024 1024;" xml:space="preserve">
<path d="M366.96,897.39c-19.27,0-32.12-6.42-44.96-19.27c-25.69-25.69-25.69-64.23,0-89.92l321.16-321.16
	c25.69-25.69,64.23-25.69,89.92,0c25.69,25.69,25.69,64.23,0,89.92L411.92,878.12C399.07,890.97,386.23,897.39,366.96,897.39z"/>
<path d="M688.12,576.23c-19.27,0-32.12-6.42-44.96-19.27L321.99,235.8c-25.69-25.69-25.69-64.23,0-89.92s64.23-25.69,89.92,0
	l321.16,321.16c25.69,25.69,25.69,64.23,0,89.92C720.23,569.81,707.39,576.23,688.12,576.23z"/>
</svg>
