<svg width="44" height="24" viewBox="0 0 44 24" fill="none" xmlns="http://www.w3.org/2000/svg">
<path d="M7.60429 9.88253C3.70601 9.88253 0.545898 13.0426 0.545898 16.9417C0.545898 20.8395 3.70601 23.9999 7.60429 23.9999C10.4506 23.9999 12.8979 22.3111 14.0142 19.8834L15.6912 21.1764C15.6912 21.1764 28.0142 21.2644 28.6911 20.8819C28.6911 20.8819 27.1619 16.7057 29.103 14.9405C29.3073 14.7546 29.5641 14.5426 29.8466 14.318C29.5212 15.129 29.3383 16.0126 29.3383 16.941C29.3383 20.8396 32.4981 23.9991 36.3964 23.9991C40.2947 23.9991 43.4542 20.8382 43.4542 16.941C43.4542 13.042 40.294 9.88262 36.3964 9.88262C36.3324 9.88262 36.2713 9.8907 36.2076 9.89199C36.7174 9.56106 37.0427 9.3533 37.0427 9.3533L36.5134 8.8824C36.5134 8.8824 38.0428 8.52998 37.6905 7.76489C37.3371 6.9998 33.6318 2.41201 33.6318 2.41201C33.6318 2.41201 34.2881 1.00004 32.9306 0L32.2787 1.41179C32.2787 1.41179 30.6169 0.264705 29.9554 0.485598C29.2936 0.705849 28.3017 0.816526 27.9918 1.30157L27.6834 1.5885C27.6834 1.5885 27.5961 2.09624 28.1023 2.84617C28.1023 2.84617 33.1982 4.41217 33.4404 5.55908C33.4404 5.55908 33.7938 6.2877 32.2713 6.46322L31.9633 6.86074L31.1462 6.90473L29.6691 3.52952C29.6691 3.52952 28.2564 3.90444 27.5292 4.47766L27.6395 5.05079C27.6395 5.05079 21.7062 1.01473 16.1253 6.99217C16.1253 6.99217 12.0005 8.18307 9.11087 4.52175C9.11087 4.52175 9.06688 3.33067 2.09675 3.55138L2.58225 4.05874C2.58225 4.05874 2.09675 4.10274 1.89854 4.41153C1.70033 4.71996 2.00875 5.05088 3.59717 5.05088C3.59717 5.05088 7.19328 9.15353 9.95026 8.91142L13.8761 10.8086L15.6189 13.7863C15.6189 13.7863 15.622 14.0421 15.64 14.4334C15.2355 14.5195 14.7821 14.6152 14.301 14.7172C13.3683 11.9097 10.7256 9.88253 7.60429 9.88253ZM36.3963 12.0455C39.0962 12.0455 41.2917 14.2418 41.2917 16.9409C41.2917 19.6403 39.0954 21.8358 36.3963 21.8358C33.6965 21.8358 31.5014 19.6396 31.5014 16.9409C31.5014 14.2418 33.6966 12.0455 36.3963 12.0455ZM7.60429 21.8367C4.90517 21.8367 2.70891 19.6403 2.70891 16.9417C2.70891 14.2418 4.90517 12.0463 7.60429 12.0463C9.67931 12.0463 11.4523 13.3463 12.1632 15.1727C9.56763 15.7248 6.9913 16.2739 6.9913 16.2739L7.3237 18.1047L12.4065 17.8802C11.9685 20.1313 9.98278 21.8367 7.60429 21.8367ZM16.0821 17.7175C16.2264 18.2074 16.4145 18.5968 16.6618 18.764L14.3936 18.8527C14.4908 18.5053 14.5641 18.1486 14.6083 17.7816L16.0821 17.7175Z" fill="#F9F91C"/>
<path d="M7.60429 9.88253C3.70601 9.88253 0.545898 13.0426 0.545898 16.9417C0.545898 20.8395 3.70601 23.9999 7.60429 23.9999C10.4506 23.9999 12.8979 22.3111 14.0142 19.8834L15.6912 21.1764C15.6912 21.1764 28.0142 21.2644 28.6911 20.8819C28.6911 20.8819 27.1619 16.7057 29.103 14.9405C29.3073 14.7546 29.5641 14.5426 29.8466 14.318C29.5212 15.129 29.3383 16.0126 29.3383 16.941C29.3383 20.8396 32.4981 23.9991 36.3964 23.9991C40.2947 23.9991 43.4542 20.8382 43.4542 16.941C43.4542 13.042 40.294 9.88262 36.3964 9.88262C36.3324 9.88262 36.2713 9.8907 36.2076 9.89199C36.7174 9.56106 37.0427 9.3533 37.0427 9.3533L36.5134 8.8824C36.5134 8.8824 38.0428 8.52998 37.6905 7.76489C37.3371 6.9998 33.6318 2.41201 33.6318 2.41201C33.6318 2.41201 34.2881 1.00004 32.9306 0L32.2787 1.41179C32.2787 1.41179 30.6169 0.264705 29.9554 0.485598C29.2936 0.705849 28.3017 0.816526 27.9918 1.30157L27.6834 1.5885C27.6834 1.5885 27.5961 2.09624 28.1023 2.84617C28.1023 2.84617 33.1982 4.41217 33.4404 5.55908C33.4404 5.55908 33.7938 6.2877 32.2713 6.46322L31.9633 6.86074L31.1462 6.90473L29.6691 3.52952C29.6691 3.52952 28.2564 3.90444 27.5292 4.47766L27.6395 5.05079C27.6395 5.05079 21.7062 1.01473 16.1253 6.99217C16.1253 6.99217 12.0005 8.18307 9.11087 4.52175C9.11087 4.52175 9.06688 3.33067 2.09675 3.55138L2.58225 4.05874C2.58225 4.05874 2.09675 4.10274 1.89854 4.41153C1.70033 4.71996 2.00875 5.05088 3.59717 5.05088C3.59717 5.05088 7.19328 9.15353 9.95026 8.91142L13.8761 10.8086L15.6189 13.7863C15.6189 13.7863 15.622 14.0421 15.64 14.4334C15.2355 14.5195 14.7821 14.6152 14.301 14.7172C13.3683 11.9097 10.7256 9.88253 7.60429 9.88253ZM36.3963 12.0455C39.0962 12.0455 41.2917 14.2418 41.2917 16.9409C41.2917 19.6403 39.0954 21.8358 36.3963 21.8358C33.6965 21.8358 31.5014 19.6396 31.5014 16.9409C31.5014 14.2418 33.6966 12.0455 36.3963 12.0455ZM7.60429 21.8367C4.90517 21.8367 2.70891 19.6403 2.70891 16.9417C2.70891 14.2418 4.90517 12.0463 7.60429 12.0463C9.67931 12.0463 11.4523 13.3463 12.1632 15.1727C9.56763 15.7248 6.9913 16.2739 6.9913 16.2739L7.3237 18.1047L12.4065 17.8802C11.9685 20.1313 9.98278 21.8367 7.60429 21.8367ZM16.0821 17.7175C16.2264 18.2074 16.4145 18.5968 16.6618 18.764L14.3936 18.8527C14.4908 18.5053 14.5641 18.1486 14.6083 17.7816L16.0821 17.7175Z" fill="white"/>
</svg>
