<?xml version="1.0" encoding="utf-8"?>
<!-- Generator: Adobe Illustrator 24.3.0, SVG Export Plug-In . SVG Version: 6.00 Build 0)  -->
<svg version="1.1" id="Capa_1" xmlns="http://www.w3.org/2000/svg" xmlns:xlink="http://www.w3.org/1999/xlink" x="0px" y="0px"
	 viewBox="0 0 800 800" style="enable-background:new 0 0 800 800;" xml:space="preserve">
<style type="text/css">
	.st0{fill:#FC0F10;}
</style>
<g>
	<g>
		<path class="st0" d="M131.6,360.52C58.92,360.52,0,419.44,0,492.14c0,72.67,58.92,131.6,131.6,131.6
			c53.07,0,98.7-31.49,119.51-76.75l31.27,24.11c0,0,229.76,1.64,242.38-5.49c0,0-28.51-77.86,7.68-110.77
			c3.81-3.47,8.6-7.42,13.86-11.61c-6.07,15.12-9.48,31.59-9.48,48.9c0,72.69,58.91,131.59,131.59,131.59S800,564.79,800,492.12
			c0-72.7-58.92-131.6-131.59-131.6c-1.19,0-2.33,0.15-3.52,0.17c9.51-6.17,15.57-10.04,15.57-10.04l-9.87-8.78
			c0,0,28.51-6.57,21.95-20.84c-6.59-14.26-75.67-99.8-75.67-99.8s12.24-26.33-13.07-44.97l-12.15,26.32
			c0,0-30.98-21.39-43.32-17.27c-12.34,4.11-30.83,6.17-36.61,15.21l-5.75,5.35c0,0-1.63,9.47,7.81,23.45
			c0,0,95.01,29.2,99.53,50.58c0,0,6.59,13.58-21.8,16.86l-5.74,7.41L570.53,305l-27.54-62.93c0,0-26.34,6.99-39.9,17.68l2.06,10.69
			c0,0-110.62-75.25-214.68,36.2c0,0-76.9,22.2-130.78-46.06c0,0-0.82-22.21-130.77-18.09l9.05,9.46c0,0-9.05,0.82-12.75,6.58
			c-3.7,5.75,2.05,11.92,31.67,11.92c0,0,67.05,76.49,118.45,71.98l73.2,35.37l32.49,55.52c0,0,0.06,4.77,0.39,12.06
			c-7.54,1.61-16,3.39-24.97,5.29C239.07,398.32,189.79,360.52,131.6,360.52z M668.41,400.85c50.34,0,91.27,40.95,91.27,91.27
			c0,50.33-40.95,91.26-91.27,91.26c-50.34,0-91.26-40.95-91.26-91.26C577.15,441.8,618.08,400.85,668.41,400.85z M131.6,583.4
			c-50.32,0-91.27-40.95-91.27-91.26c0-50.34,40.95-91.27,91.27-91.27c38.69,0,71.74,24.24,85,58.29
			c-48.39,10.29-96.43,20.53-96.43,20.53l6.2,34.13l94.77-4.19C212.97,551.61,175.95,583.4,131.6,583.4z M289.66,506.6
			c2.69,9.13,6.2,16.39,10.81,19.51l-42.29,1.65c1.81-6.48,3.18-13.13,4-19.97L289.66,506.6z"/>
	</g>
</g>
</svg>
