<?xml version="1.0" encoding="utf-8"?>
<!-- Generator: Adobe Illustrator 24.3.0, SVG Export Plug-In . SVG Version: 6.00 Build 0)  -->
<svg version="1.1" id="Layer_1" xmlns="http://www.w3.org/2000/svg" xmlns:xlink="http://www.w3.org/1999/xlink" x="0px" y="0px"
	 viewBox="0 0 582 505" style="enable-background:new 0 0 582 505;" xml:space="preserve">
<style type="text/css">
	.st0{fill:#5F855D;}
	.st1{fill:#8CCB8A;}
	.st2{fill:#07BB01;}
	.st3{fill:#8FDA8B;}
	.st4{fill:#019601;}
	.st5{fill:#EEEFEE;}
	.st6{fill:#06A701;}
	.st7{fill:#069603;}
	.st8{fill:#80D67E;}
	.st9{fill:#EFEFEE;}
	.st10{fill:#C7F9C6;}
	.st11{fill:#06A601;}
	.st12{fill:#527F4E;}
	.st13{fill:#07A601;}
	.st14{fill:#059203;}
	.st15{fill:#EFEFEF;}
	.st16{fill:#999999;}
	.st17{fill:#538754;}
	.st18{fill:#2EA116;}
	.st19{fill:#4BA842;}
	.st20{fill:#9BE799;}
	.st21{fill:#29AB24;}
	.st22{fill:#35B02F;}
	.st23{fill:#77CD72;}
	.st24{fill:#787878;}
	.st25{fill:#D2D2D2;}
	.st26{fill:#989898;}
</style>
<g>
	<path class="st0" d="M278.66,72.2c2.09-4.12-0.31-9.4,1.78-13.65c1.31,4.34,1.17,8.91,1.53,13.39c-4.41,2.14-9.09,3.59-13.89,4.56
		C271.13,74.03,275.09,73.51,278.66,72.2z"/>
</g>
<g>
	<path class="st1" d="M306.96,71.85c5.03-0.78,5.78-7.04,9.95-9.33c-0.99,3.4-2.66,6.54-3.85,9.87c4.82,3.71,11.51,6.02,13.86,12.13
		c-4.62-4.66-10.08-8.32-15.59-11.81C309.96,72.08,308.41,72.12,306.96,71.85z"/>
</g>
<g>
	<g>
		<path class="st2" d="M268.08,76.5c4.8-0.97,9.48-2.42,13.89-4.56c8.27-0.93,16.75-1.73,24.99-0.09c1.45,0.27,3,0.23,4.37,0.86
			c5.51,3.49,10.97,7.15,15.59,11.81c2.13,2.69,3.7,5.83,5.06,8.97c0.07,1.94,0.04,3.87,0,5.81c-2.01,1.88-5.36,3.52-4.68,6.79
			c1.79-0.28,3.54-1.02,5.38-0.87c1.44,0.74,2.64,1.85,3.89,2.88c0.2,0.17,0.61,0.52,0.82,0.7c0.62,6.22,1.73,12.43,0.99,18.71
			c0.3-2.37,0.6-4.73,0.95-7.08c0.18,10.13,0.57,20.26,0.18,30.39c-0.23-1.24-0.45-2.48-0.68-3.71c-1.93,1.04-4.85,1.03-5.84,3.23
			c2.91,2.47,5.92,5.17,5.72,9.37c0.15,10.02-1.7,19.89-2.68,29.82c-1.43,10.41-3.46,20.91-2.45,31.46c0.64-0.03,1.91-0.1,2.55-0.13
			c-1.32,0.27-2.64,0.54-3.95,0.8c-0.62,6.79-0.07,13.63-0.73,20.42c-0.78,8.46-0.46,16.96-0.21,25.44
			c0.29,5.4-1.97,10.56-1.62,15.98c0.43,10-0.07,20.05,1.25,29.99c0.79,6.76-0.95,13.81,1.55,20.32c0.59,6.74-0.37,13.5,0.08,20.24
			c0.23-4.56-0.21-9.19,0.75-13.69c0.46,7.34-0.13,14.74,0.89,22.05c0.59,6.7,0.22,13.45,1.15,20.12
			c-0.01,7.26,1.36,14.44,1.14,21.7c-0.95,5.68-0.18,11.52-1.59,17.14c-1.72-0.17-3.44-0.35-5.16-0.42
			c-3.82-0.4-6.79,2.92-10.62,2.83c-3.35-0.04-7.8,2.05-10.34-0.93c-0.55-9.46,1.13-18.92,1.25-28.39
			c0.88-12.18,1.56-24.37,2.39-36.55c0.8-6.78,1.77-13.57,1.54-20.41c-0.34-7.7,1.28-15.31,1.03-23
			c0.09-29.01-0.02-58.02-0.05-87.03c-0.05-3.35-0.46-6.68-0.75-10.01c-0.62-6.89,0.22-13.82-0.59-20.69
			c-0.56-4.74-0.72-9.5-0.63-14.27c0.09-6.03-1.07-11.98-1.08-18c-0.06-10.67,0.04-21.34,0.03-32.01c0.16-4.78,0.17-9.74,1.93-14.27
			c2-3.89,5.18-7.05,7.18-10.96c-4.51-0.58-7.98,3.48-10.57,6.63c-4.41,6.99-6.18,15.39-6.59,23.56
			c-1.25,10.98-0.53,22.03-0.7,33.05c-0.16,6.36,1.03,12.66,0.99,19.01c-0.04,5.69,1.08,11.3,0.99,16.99
			c-0.05,4.14,0.06,8.29,0.53,12.41c1.09,9.79-0.01,19.65,0.78,29.46c1.41,12.33,0.34,24.77,0.86,37.15
			c0.28,4.32,0.86,8.63,0.82,12.98c-0.06,15.66-0.04,31.33-0.02,47c0.04,8.03-1.48,15.95-1.87,23.96
			c-0.34,6.3,0.27,12.62-0.39,18.91c-0.46,4.36-0.81,8.74-0.67,13.13c0.33,7.26-1.38,14.5-0.26,21.75
			c-5.51,4.34-12.96,3.88-19.51,2.96c-1.27-0.37-3.94-0.7-3.27-2.63c1.35-5.67,3.39-11.23,3.64-17.11
			c0.58-12.33,1.83-24.61,2.41-36.93c0.75-12.74,3.63-25.28,3.77-38.06c0.1-5.01,1.04-9.96,1.03-14.98c0-4.96-0.25-9.93,0.28-14.87
			c0.99-9.36,0.91-18.82-0.08-28.17c-0.7-10.01,0.45-20.1-0.95-30.09c-0.67-15.16-1.8-30.29-2.72-45.44
			c-0.95-7.03-1.48-14.09-1.92-21.16c-1.26-10.49-2.2-21.01-3.27-31.52c-1.08-10.72,0.36-21.49,2.55-31.98
			c1.37-6.81,4.95-12.95,6.23-19.78c-6.3,4.35-8.58,12.04-11.27,18.81c-5.28,13.42-5.26,28.06-4.74,42.24
			c1.09,14.77,3.01,29.47,4.42,44.2c-0.71,8.9,0.84,17.73,0.91,26.62c1.27,11.69,2.14,23.41,2.75,35.14
			c-0.26,7.34,0.3,14.65,0.92,21.96c0.19,15.68-0.03,31.36,0.08,47.04c0.14,6.36-0.84,12.67-1.08,19.02
			c-0.22,7.02-1.78,13.91-1.86,20.94c-0.06,3.83-0.2,7.66-0.63,11.47c-0.97,7.97,0.12,16.03-0.96,24
			c-0.77,5.59-0.91,11.31-2.39,16.78c-0.48,2.44-2.97,3.78-5.29,3.82c-4.59,0.21-9.1-0.79-13.59-1.58
			c0.27-9.49,0.73-18.98,0.72-28.48c1.2-13.51,1.21-27.13,3.37-40.54c1.13-12.11,1.47-24.28,2.51-36.39
			c0.26-12.68-0.32-25.38,0.78-38.03c0.51-7.67-1.06-15.35,0.09-23c0.17-10.68,0.56-21.41-0.57-32.05
			c-0.66-11.89,0.29-23.82-0.63-35.7c-1.21-9.4-0.05-18.91-1.4-28.3c-0.05-9.58-1.98-19.13-0.83-28.7
			c0.88-7.4-0.03-15.09,2.66-22.19c1.04-3.7,4.34-6.27,5.06-10.09c-5.08,0.19-7.53,5.51-9.74,9.34c-4.16,9.96-5.77,20.92-5.45,31.68
			c0.21,10.75-0.43,21.54,0.73,32.26c0.7,6.42,0.09,12.9,0.86,19.32c0.89,7.8,0.17,15.67,1.25,23.46
			c0.56,14.65,0.24,29.32,0.3,43.97c0.08,6.01,1.06,11.97,0.95,17.99c-0.11,17.01,0.15,34.02-0.14,51.01
			c-1.31,9.67-0.26,19.45-1.56,29.12c-0.75,6.51,0.07,13.09-0.67,19.61c-0.54,4.73-0.75,9.49-0.6,14.26
			c0.24,7.23-0.77,14.42-1.34,21.61c-0.35,2.41-0.37,5.07-1.77,7.16c-1.89,0.82-4.1,0.4-5.99,1.22c-2.36,1.52-4.23,3.65-6.26,5.57
			c-2.91-0.85-5.8-1.77-8.66-2.77c-0.47-3.56-0.38-7.16,0.05-10.71c0.97-8.68,0.34-17.43,0.66-26.13l0.12-0.84
			c0.65-2.65,1.08-5.36,1.04-8.1c-0.03-6.78,0.59-13.57-0.21-20.33c0.06-1.45,0.14-2.89,0.23-4.33c1.68-8.43,1.44-17.17,0.74-25.7
			c-0.07-5.47-0.07-10.95,0.35-16.4c1.91-11.99-0.31-24.23,1.58-36.2c0.39-4.36-0.23-8.74,0.15-13.1c0.24-2.93,1.39-5.67,1.82-8.55
			c-0.73-1.2-2.09-1.75-3.27-2.37c-12.01-1.15-24.09-3.83-34.83-9.47c-11.42-5.67-20.91-15.08-26.56-26.51
			c-3.37-6.5-5.39-13.61-6.69-20.79c-0.44-3.82-0.37-7.69-0.94-11.5c-1.5-9.19-0.86-18.53-1.06-27.8
			c-0.21-9.09,1.61-18.05,3.88-26.8c1.33-6.08,5.53-11.03,9.94-15.19c6.97-6.03,17.17-6.21,25.62-3.75
			c6.4,1.87,9.69,8.63,10.25,14.84c1.36,11.8-0.74,23.65-1.35,35.45c-0.48,9.71-1.62,20.12,2.99,29.1
			c3.91,7.48,11.69,11.93,19.56,14.18c2-2.88,1.46-6.48,1.51-9.78c-0.1-11.34,0-22.68-0.08-34.02c-0.01-3.11-0.56-6.17-1.31-9.18
			c-2.8-0.66-5.6-1.35-8.37-2.14c2.66-0.23,5.34-0.18,8-0.45c-0.19-10.66-1.08-21.4,0.34-32c1.96-5.7,3.23-11.66,5.94-17.08
			c2.22-4.5,5.15-8.63,8.49-12.36c2.59,3.38,5.22,6.77,8.52,9.51c0.73-0.95,2-1.75,1.86-3.12c-2.53-3.02-5.82-5.31-8.42-8.29
			C258.6,81.76,263.42,79.21,268.08,76.5z M200.16,123.52c1.04,7.3,2.13,14.59,2.05,21.98c1.59,9.35,0.12,18.86,1.45,28.23
			c0.7,6.58-0.07,13.27,1.19,19.81c1.21,10.46,7.23,20.55,16.78,25.34c6.1,3.08,13.51,3.42,19.77,0.62
			c-4.08-2.54-9.25-1.65-13.42-3.96c-5.8-3.24-11.85-7.64-13.58-14.42c-2.42-6.61-2.81-13.65-3.37-20.59
			c0.09-14.69-1.89-29.34-4.36-43.81C205.44,132.03,204.33,126.54,200.16,123.52z M184.03,145.51c1.35,5.65,0.73,11.5,1.65,17.21
			c0.94,6.43-0.22,12.95,0.77,19.37c1.12,7.63-0.09,15.38,0.94,23.02c1.09,8.29,4.58,16.5,10.5,22.5
			c5.38,4.29,11.17,8.64,18.09,9.98c5.24,1.28,10.69,1,16.05,0.88c1.22,0.03,2.36-0.28,3.4-0.93c-6.86-2.6-14.41-3.07-21.04-6.43
			c-8.45-3.3-14.67-10.7-17.89-19.01c-2.3-9.02-2.54-18.38-2.6-27.63c-1.01-6.59-0.69-13.32-2.06-19.86
			c-0.89-4.8-1.11-9.73-2.61-14.41c-1.37-4.18-2.13-8.83-5.41-12.05C182.58,140.49,183.68,143.09,184.03,145.51z"/>
	</g>
	<g>
		<path class="st2" d="M379.01,114.3c9.87-1.74,21.23,1.64,26.89,10.32c1.66,3.39,3.3,7.29,7.27,8.49c-0.07,0.41-0.2,1.23-0.27,1.64
			c-0.04,0.44-0.13,1.31-0.17,1.75c1.82,6.22,3.4,12.56,3.84,19.04c-0.01,1.12,0.6,2.1,0.94,3.14c0.02,0.61,0.07,1.84,0.09,2.45
			c-0.17,9.12,0.03,18.25-0.2,27.38c0.15,5.39-1.17,10.67-1.01,16.06c-0.28-2.22-0.54-4.44-0.89-6.64
			c0.12,6.77-1.08,13.46-1.91,20.15c-0.35-0.34-0.69-0.68-1.03-1.02c-0.12,5.77-2.3,11.23-4.77,16.36
			c-3.35,6.61-7.31,13.02-12.6,18.27c-10.62,10.48-24.47,17.18-38.87,20.66c-2.07-1.37-5.13-2.78-4.43-5.83
			c0.99-7.93,0.72-15.91,0.96-23.88c10.92-2.57,19.95-10.74,24.29-21c4.83-11.71,5.1-24.65,4.97-37.14
			c0.14-13.09-3.54-25.93-3.11-39.03c0.08-3.25,2.4-5.76,4.05-8.36c-2.54-2.06-6.04-0.79-7.72,1.74c-4.85,6.1-3.34,14.41-3.17,21.61
			c1.53,10.95,3.25,21.94,2.93,33.04c0.26,11.72-1.09,24.25-7.98,34.12c-3.73,4.5-8.24,9.01-14.22,10.14
			c0.51-9.45-0.21-19.25,3.1-28.29c2.95-4.25,5.2-9.03,5.96-14.19c1.62-10.64-0.29-21.36-0.66-32.01
			c-1.28-10.05-0.94-20.21-0.82-30.32c-1.57-0.92-3.06-1.96-4.62-2.88c1.77-0.36,3.56-0.71,5.34-1.07
			c1.04-3.82,2.74-7.55,5.74-10.22C370.27,115.84,374.67,114.67,379.01,114.3z M416.42,160.49c-0.01,12.04-0.1,24.09-0.14,36.13
			c0.97-1.9,0.38-4.1,0.47-6.13C416.33,180.5,416.96,170.46,416.42,160.49z"/>
	</g>
</g>
<g>
	<path class="st3" d="M253.96,83.96c4.51-2.8,8.55-7.05,14.12-7.46c-4.66,2.71-9.48,5.26-13.53,8.88c-0.67,0.61-1.33,1.24-1.96,1.9
		c-3.34,3.73-6.27,7.86-8.49,12.36c-2.71,5.42-3.98,11.38-5.94,17.08c0.37-9.01,4.38-17.44,9.13-24.93
		c1.25-1.78,2.64-3.46,3.92-5.22c-0.98-1.69-1.93-3.39-2.91-5.08C250.2,82.27,252.05,83.18,253.96,83.96z"/>
</g>
<g>
	<path class="st4" d="M252.59,87.28c0.63-0.66,1.29-1.29,1.96-1.9c2.6,2.98,5.89,5.27,8.42,8.29c0.14,1.37-1.13,2.17-1.86,3.12
		C257.81,94.05,255.18,90.66,252.59,87.28z"/>
</g>
<g>
	<g>
		<path class="st5" d="M238.68,107.14c2-5.38,2.66-12.79,8.61-15.35c-4.75,7.49-8.76,15.92-9.13,24.93
			c-1.42,10.6-0.53,21.34-0.34,32c-2.66,0.27-5.34,0.22-8,0.45c2.77,0.79,5.57,1.48,8.37,2.14c-1.03,9.04-0.22,18.13-0.3,27.19
			c-0.06,8.03,0.15,16.07-0.26,24.09c-9.07-1.97-17.37-8.66-19.98-17.74c-1.76-6.29-0.97-12.9-1.04-19.34
			c0.01-13.28,3.14-26.44,1.72-39.73c-0.38-3.01-1.35-5.91-2.53-8.68c5.59-0.06,10.13-3.86,15.34-5.39
			C233.73,110.42,237.76,110.41,238.68,107.14z M235.67,130.51c0.09,4.03-0.2,8.16,0.9,12.1c0.71-7.41,0.7-14.9,0.08-22.31
			C235.47,123.56,235.79,127.1,235.67,130.51z"/>
	</g>
</g>
<g>
	<path class="st6" d="M281.79,112.3c2.69-6.77,4.97-14.46,11.27-18.81c-1.28,6.83-4.86,12.97-6.23,19.78
		c-2.19,10.49-3.63,21.26-2.55,31.98c1.07,10.51,2.01,21.03,3.27,31.52c0.44,7.07,0.97,14.13,1.92,21.16
		c0.92,15.15,2.05,30.28,2.72,45.44c1.4,9.99,0.25,20.08,0.95,30.09c0.99,9.35,1.07,18.81,0.08,28.17
		c-0.53,4.94-0.28,9.91-0.28,14.87c0.01,5.02-0.93,9.97-1.03,14.98c-0.14,12.78-3.02,25.32-3.77,38.06
		c-0.58,12.32-1.83,24.6-2.41,36.93c-0.25,5.88-2.29,11.44-3.64,17.11c-0.67,1.93,2,2.26,3.27,2.63c6.55,0.92,14,1.38,19.51-2.96
		c-1.12-7.25,0.59-14.49,0.26-21.75c-0.14-4.39,0.21-8.77,0.67-13.13c0.66-6.29,0.05-12.61,0.39-18.91
		c0.39-8.01,1.91-15.93,1.87-23.96c-0.02-15.67-0.04-31.34,0.02-47c0.04-4.35-0.54-8.66-0.82-12.98
		c-0.52-12.38,0.55-24.82-0.86-37.15c-0.79-9.81,0.31-19.67-0.78-29.46c-0.47-4.12-0.58-8.27-0.53-12.41
		c0.09-5.69-1.03-11.3-0.99-16.99c0.04-6.35-1.15-12.65-0.99-19.01c0.17-11.02-0.55-22.07,0.7-33.05
		c0.41-8.17,2.18-16.57,6.59-23.56c2.59-3.15,6.06-7.21,10.57-6.63c-2,3.91-5.18,7.07-7.18,10.96c-1.76,4.53-1.77,9.49-1.93,14.27
		c0.01,10.67-0.09,21.34-0.03,32.01c0.01,6.02,1.17,11.97,1.08,18c-0.09,4.77,0.07,9.53,0.63,14.27c0.81,6.87-0.03,13.8,0.59,20.69
		c0.29,3.33,0.7,6.66,0.75,10.01c0.03,29.01,0.14,58.02,0.05,87.03c0.25,7.69-1.37,15.3-1.03,23c0.23,6.84-0.74,13.63-1.54,20.41
		c-0.83,12.18-1.51,24.37-2.39,36.55c-0.12,9.47-1.8,18.93-1.25,28.39c2.54,2.98,6.99,0.89,10.34,0.93
		c3.83,0.09,6.8-3.23,10.62-2.83c1.72,0.07,3.44,0.25,5.16,0.42c1.41-5.62,0.64-11.46,1.59-17.14c1.18,8.07,1.47,16.27,1.07,24.42
		c-3.56,0.3-7.04,1.06-10.5,1.9c-6.68,1.62-13.51,2.42-20.26,3.72c-2.53,0.49-5.11,0.58-7.68,0.53c-8.12-0.16-16.27,0.38-24.35-0.73
		c-10.77-1.43-21.64-2.75-32.05-6.01c2.03-1.92,3.9-4.05,6.26-5.57c1.89-0.82,4.1-0.4,5.99-1.22c1.4-2.09,1.42-4.75,1.77-7.16
		c0.57-7.19,1.58-14.38,1.34-21.61c-0.15-4.77,0.06-9.53,0.6-14.26c0.74-6.52-0.08-13.1,0.67-19.61c1.3-9.67,0.25-19.45,1.56-29.12
		c0.29-16.99,0.03-34,0.14-51.01c0.11-6.02-0.87-11.98-0.95-17.99c-0.06-14.65,0.26-29.32-0.3-43.97
		c-1.08-7.79-0.36-15.66-1.25-23.46c-0.77-6.42-0.16-12.9-0.86-19.32c-1.16-10.72-0.52-21.51-0.73-32.26
		c-0.32-10.76,1.29-21.72,5.45-31.68c2.21-3.83,4.66-9.15,9.74-9.34c-0.72,3.82-4.02,6.39-5.06,10.09
		c-2.69,7.1-1.78,14.79-2.66,22.19c-1.15,9.57,0.78,19.12,0.83,28.7c1.35,9.39,0.19,18.9,1.4,28.3c0.92,11.88-0.03,23.81,0.63,35.7
		c1.13,10.64,0.74,21.37,0.57,32.05c-1.15,7.65,0.42,15.33-0.09,23c-1.1,12.65-0.52,25.35-0.78,38.03
		c-1.04,12.11-1.38,24.28-2.51,36.39c-2.16,13.41-2.17,27.03-3.37,40.54c0.01,9.5-0.45,18.99-0.72,28.48
		c4.49,0.79,9,1.79,13.59,1.58c2.32-0.04,4.81-1.38,5.29-3.82c1.48-5.47,1.62-11.19,2.39-16.78c1.08-7.97-0.01-16.03,0.96-24
		c0.43-3.81,0.57-7.64,0.63-11.47c0.08-7.03,1.64-13.92,1.86-20.94c0.24-6.35,1.22-12.66,1.08-19.02
		c-0.11-15.68,0.11-31.36-0.08-47.04c-0.62-7.31-1.18-14.62-0.92-21.96c-0.61-11.73-1.48-23.45-2.75-35.14
		c-0.07-8.89-1.62-17.72-0.91-26.62c-1.41-14.73-3.33-29.43-4.42-44.2C276.53,140.36,276.51,125.72,281.79,112.3z"/>
</g>
<g>
	<path class="st7" d="M331.98,93.49c1,2.17,1.6,4.68,3.6,6.19c-0.2,2.85,0.48,5.63,0.99,8.42c-1.25-1.03-2.45-2.14-3.89-2.88
		c-1.84-0.15-3.59,0.59-5.38,0.87c-0.68-3.27,2.67-4.91,4.68-6.79C332.02,97.36,332.05,95.43,331.98,93.49z"/>
</g>
<g>
	<path class="st8" d="M181.22,112.72c6.31-4.63,14.52-5.81,22.09-4.39c4.92,1.44,10.38,3.68,12.49,8.77
		c1.18,2.77,2.15,5.67,2.53,8.68c1.42,13.29-1.71,26.45-1.72,39.73c0.07,6.44-0.72,13.05,1.04,19.34
		c2.61,9.08,10.91,15.77,19.98,17.74c0.41-8.02,0.2-16.06,0.26-24.09c0.08-9.06-0.73-18.15,0.3-27.19c0.75,3.01,1.3,6.07,1.31,9.18
		c0.08,11.34-0.02,22.68,0.08,34.02c-0.05,3.3,0.49,6.9-1.51,9.78c-7.87-2.25-15.65-6.7-19.56-14.18
		c-4.61-8.98-3.47-19.39-2.99-29.1c0.61-11.8,2.71-23.65,1.35-35.45c-0.56-6.21-3.85-12.97-10.25-14.84
		c-8.45-2.46-18.65-2.28-25.62,3.75c-4.41,4.16-8.61,9.11-9.94,15.19c-2.27,8.75-4.09,17.71-3.88,26.8
		c0.2,9.27-0.44,18.61,1.06,27.8c0.02,2.18-0.03,4.37-0.17,6.55c-2.14-11.26-2.87-22.81-2.55-34.27c0.88-10.21,2.2-20.43,5.39-30.21
		c-2.58-2.27-6.85-1.77-8.9-4.55c3.4,0.03,6.76,0.53,10.09,1.21C175.11,119.54,177.31,115.3,181.22,112.72z"/>
</g>
<g>
	<path class="st9" d="M337.39,108.8c10.35,1.7,19.23,8.05,29.54,9.98c-3,2.67-4.7,6.4-5.74,10.22c-1.78,0.36-3.57,0.71-5.34,1.07
		c1.56,0.92,3.05,1.96,4.62,2.88c-0.12,10.11-0.46,20.27,0.82,30.32c0.37,10.65,2.28,21.37,0.66,32.01
		c-0.76,5.16-3.01,9.94-5.96,14.19c-5.38,5.56-12.15,10-19.86,11.39c-0.64,0.03-1.91,0.1-2.55,0.13
		c-1.01-10.55,1.02-21.05,2.45-31.46c0.98-9.93,2.83-19.8,2.68-29.82c0.33-1.89,0.78-3.76,1.19-5.64c3.7,0.98,7.39,2.01,11.03,3.21
		c-3.76-2.25-7.68-4.19-11.42-6.46c0.39-10.13,0-20.26-0.18-30.39c-0.35,2.35-0.65,4.71-0.95,7.08
		C339.12,121.23,338.01,115.02,337.39,108.8z"/>
</g>
<g>
	<path class="st10" d="M235.67,130.51c0.12-3.41-0.2-6.95,0.98-10.21c0.62,7.41,0.63,14.9-0.08,22.31
		C235.47,138.67,235.76,134.54,235.67,130.51z"/>
</g>
<g>
	<path class="st11" d="M200.16,123.52c4.17,3.02,5.28,8.51,6.51,13.2c2.47,14.47,4.45,29.12,4.36,43.81
		c0.56,6.94,0.95,13.98,3.37,20.59c1.73,6.78,7.78,11.18,13.58,14.42c4.17,2.31,9.34,1.42,13.42,3.96
		c-6.26,2.8-13.67,2.46-19.77-0.62c-9.55-4.79-15.57-14.88-16.78-25.34c-1.26-6.54-0.49-13.23-1.19-19.81
		c-1.33-9.37,0.14-18.88-1.45-28.23C202.29,138.11,201.2,130.82,200.16,123.52z"/>
	<path class="st11" d="M184.03,145.51c-0.35-2.42-1.45-5.02-0.21-7.36c3.28,3.22,4.04,7.87,5.41,12.05
		c1.5,4.68,1.72,9.61,2.61,14.41c1.37,6.54,1.05,13.27,2.06,19.86c0.06,9.25,0.3,18.61,2.6,27.63c3.22,8.31,9.44,15.71,17.89,19.01
		c6.63,3.36,14.18,3.83,21.04,6.43c-1.04,0.65-2.18,0.96-3.4,0.93c-5.36,0.12-10.81,0.4-16.05-0.88
		c-6.92-1.34-12.71-5.69-18.09-9.98c-5.92-6-9.41-14.21-10.5-22.5c-1.03-7.64,0.18-15.39-0.94-23.02
		c-0.99-6.42,0.17-12.94-0.77-19.37C184.76,157.01,185.38,151.16,184.03,145.51z"/>
</g>
<g>
	<path class="st12" d="M405.9,124.62c2.72,1.72,3.64,5.02,5.86,7.25c4.69-2.42,9.25-5.1,14.08-7.26c-3.67,4.12-8.2,7.36-12.94,10.14
		c0.07-0.41,0.2-1.23,0.27-1.64C409.2,131.91,407.56,128.01,405.9,124.62z"/>
	<path class="st12" d="M417.51,158.68c4.46,0.22,9.54-0.2,13.47,2.22c-3.03,0.13-6.07,0.06-9.1,0.11c-1.43,0.02-2.86,0.06-4.28,0.12
		C417.58,160.52,417.53,159.29,417.51,158.68z"/>
</g>
<g>
	<path class="st13" d="M375.33,138.85c1.68-2.53,5.18-3.8,7.72-1.74c-1.65,2.6-3.97,5.11-4.05,8.36
		c-0.43,13.1,3.25,25.94,3.11,39.03c0.13,12.49-0.14,25.43-4.97,37.14c-4.34,10.26-13.37,18.43-24.29,21
		c0.03-1.63,0.03-3.25,0.04-4.88c5.98-1.13,10.49-5.64,14.22-10.14c6.89-9.87,8.24-22.4,7.98-34.12c0.32-11.1-1.4-22.09-2.93-33.04
		C371.99,153.26,370.48,144.95,375.33,138.85z"/>
</g>
<g>
	<path class="st14" d="M332.99,150.34c0.99-2.2,3.91-2.19,5.84-3.23c0.23,1.23,0.45,2.47,0.68,3.71c3.74,2.27,7.66,4.21,11.42,6.46
		c-3.64-1.2-7.33-2.23-11.03-3.21c-0.41,1.88-0.86,3.75-1.19,5.64C338.91,155.51,335.9,152.81,332.99,150.34z"/>
</g>
<g>
	<path class="st15" d="M144.16,185.67c6.38-10.18,12.55-20.83,21.36-29.13c-0.32,11.46,0.41,23.01,2.55,34.27c0,0.45,0,1.34,0,1.79
		c-4.01,1.29-8.15,2.15-12.17,3.45c4.43,0.14,8.86,0.04,13.28-0.29c1.3,7.18,3.32,14.29,6.69,20.79
		c5.65,11.43,15.14,20.84,26.56,26.51c10.74,5.64,22.82,8.32,34.83,9.47c0.1,9.46,0.55,19.01-0.79,28.41
		c-4.19,1.67-9.03,2.09-12.6,5.05c4.08-0.34,8.1-1.21,12.19-1.54c0.17,17.36-0.89,34.71-0.97,52.07
		c-1.21,12.31-0.41,24.69-1.2,37.01c-0.7,10.4-0.72,20.82-0.71,31.24c-0.48,7.16-0.61,14.35-0.27,21.52
		c-7.19-3.4-14.25-7.05-21.55-10.18c-17.68-9.42-33.67-22.02-47.01-36.95c-8.44-9.81-15.86-20.47-22.36-31.65
		c-4.43-8.93-8.55-18.06-11.4-27.63c-5.24-14.21-7.27-29.32-8.44-44.35c-0.79-21.68,2.49-43.51,10.02-63.89
		C134.97,202.48,139.56,194.03,144.16,185.67z"/>
	<path class="st15" d="M417.6,161.13c1.42-0.06,2.85-0.1,4.28-0.12c-0.5,1.1-0.97,2.22-1.44,3.33c2.85,4.63,7.49,7.84,9.97,12.74
		c7.32,10.73,12.49,22.72,17.13,34.8c3.44,10.12,6.44,20.43,7.87,31.04c2.35,12.06,1.12,24.39,1.43,36.59
		c-1.18,23.13-7.81,45.85-18.5,66.37c-6.34,12.95-15.12,24.55-24.62,35.33c-6.14,5.85-11.61,12.49-18.61,17.37
		c-1.72,1.27-3.27,2.75-4.95,4.07c-10.04,5.55-19.36,12.5-29.99,17.03c-7.33,3.51-14.9,6.65-22.67,8.97
		c0.4-8.15,0.11-16.35-1.07-24.42c0.22-7.26-1.15-14.44-1.14-21.7c-0.93-6.67-0.56-13.42-1.15-20.12
		c-1.02-7.31-0.43-14.71-0.89-22.05c-0.96,4.5-0.52,9.13-0.75,13.69c-0.45-6.74,0.51-13.5-0.08-20.24
		c0.22-6.76-0.25-13.52-0.13-20.28c2.58,0.64,5.15,1.35,7.77,1.86c-2.46-1.95-5.12-3.65-7.8-5.28c-1.03-5.82-0.54-11.74-0.71-17.61
		c0.05-5.49-0.57-11.03,0.35-16.48c8.24-0.35,16.42-1.73,24.42-3.67c14.4-3.48,28.25-10.18,38.87-20.66
		c5.29-5.25,9.25-11.66,12.6-18.27c2.47-5.13,4.65-10.59,4.77-16.36c0.34,0.34,0.68,0.68,1.03,1.02c0.83-6.69,2.03-13.38,1.91-20.15
		c0.35,2.2,0.61,4.42,0.89,6.64c-0.16-5.39,1.16-10.67,1.01-16.06C417.63,179.38,417.43,170.25,417.6,161.13z"/>
</g>
<g>
	<path class="st16" d="M416.42,160.49c0.54,9.97-0.09,20.01,0.33,30c-0.09,2.03,0.5,4.23-0.47,6.13
		C416.32,184.58,416.41,172.53,416.42,160.49z"/>
	<path class="st16" d="M447.57,406.99c0.49-1.35,2.17-1.57,3.4-1.75c3.8-0.35,7.65-0.33,11.43,0.21c-2.8,2.08-5.92,3.7-8.63,5.88
		c-1.38,1.31-0.37,3.21,0.02,4.72c0.43-0.01,1.29-0.03,1.72-0.04c1.33,0.98,2.63,2.44,4.46,2.22c4.45-0.2,7.5-3.98,11.12-6.09
		c-0.78,4.2-1.81,8.36-3.3,12.37c-7.61,1.18-15.43-1.23-22.93,0.93c-14.3,4.98-28.45,10.44-42.81,15.23
		c-1.12-1.36-2.23-2.72-3.33-4.08c0.06,1.67,0.14,3.34,0.31,5.01c-1.85-1.91-1.48-4.61-1.26-7.01c15.09-6,30.68-10.68,45.85-16.49
		C445.13,414.47,446.01,410.6,447.57,406.99z"/>
	<path class="st16" d="M350.11,456.63c3.9,0.29,7.05,2.78,10.6,4.11c2.9,0.8,6.59-0.4,8.82,2.2c0.24,1.74,0.13,3.5,0.13,5.27
		c-1.54,0.62-3.09,1.24-4.63,1.85c-2.98-2.6-6-5.2-9.52-7.04C353.08,461.51,349.38,460.2,350.11,456.63z"/>
</g>
<g>
	<path class="st17" d="M168.24,184.26c0.57,3.81,0.5,7.68,0.94,11.5c-4.42,0.33-8.85,0.43-13.28,0.29c4.02-1.3,8.16-2.16,12.17-3.45
		c0-0.45,0-1.34,0-1.79C168.21,188.63,168.26,186.44,168.24,184.26z"/>
</g>
<g>
	<path class="st18" d="M336.13,220.86c7.71-1.39,14.48-5.83,19.86-11.39c-3.31,9.04-2.59,18.84-3.1,28.29
		c-0.01,1.63-0.01,3.25-0.04,4.88c-0.24,7.97,0.03,15.95-0.96,23.88c-0.7,3.05,2.36,4.46,4.43,5.83c-8,1.94-16.18,3.32-24.42,3.67
		c-0.92,5.45-0.3,10.99-0.35,16.48c0.17,5.87-0.32,11.79,0.71,17.61c2.68,1.63,5.34,3.33,7.8,5.28c-2.62-0.51-5.19-1.22-7.77-1.86
		c-0.12,6.76,0.35,13.52,0.13,20.28c-2.5-6.51-0.76-13.56-1.55-20.32c-1.32-9.94-0.82-19.99-1.25-29.99
		c-0.35-5.42,1.91-10.58,1.62-15.98c-0.25-8.48-0.57-16.98,0.21-25.44c0.66-6.79,0.11-13.63,0.73-20.42
		C333.49,221.4,334.81,221.13,336.13,220.86z"/>
</g>
<g>
	<path class="st19" d="M237.26,252.53c1.18,0.62,2.54,1.17,3.27,2.37c-0.43,2.88-1.58,5.62-1.82,8.55
		c-0.38,4.36,0.24,8.74-0.15,13.1c-1.89,11.97,0.33,24.21-1.58,36.2c-0.71-9.47,0.8-18.94,0.14-28.41l-1.06,0.11
		c-4.09,0.33-8.11,1.2-12.19,1.54c3.57-2.96,8.41-3.38,12.6-5.05C237.81,271.54,237.36,261.99,237.26,252.53z"/>
</g>
<g>
	<path class="st20" d="M236.06,284.45l1.06-0.11c0.66,9.47-0.85,18.94-0.14,28.41c-0.42,5.45-0.42,10.93-0.35,16.4
		c-1.13,8.51-0.97,17.13-0.74,25.7c-0.09,1.44-0.17,2.88-0.23,4.33c-0.78,9.45-1.17,18.95-0.83,28.43l-0.12,0.84
		c-1.06,5.38-0.79,10.89-1.53,16.32c-0.01-10.42,0.01-20.84,0.71-31.24c0.79-12.32-0.01-24.7,1.2-37.01
		C235.17,319.16,236.23,301.81,236.06,284.45z"/>
</g>
<g>
	<path class="st21" d="M235.89,354.85c-0.23-8.57-0.39-17.19,0.74-25.7C237.33,337.68,237.57,346.42,235.89,354.85z"/>
</g>
<g>
	<path class="st22" d="M234.83,387.61c-0.34-9.48,0.05-18.98,0.83-28.43c0.8,6.76,0.18,13.55,0.21,20.33
		C235.91,382.25,235.48,384.96,234.83,387.61z"/>
</g>
<g>
	<path class="st23" d="M233.18,404.77c0.74-5.43,0.47-10.94,1.53-16.32c-0.32,8.7,0.31,17.45-0.66,26.13
		c-0.43,3.55-0.52,7.15-0.05,10.71c2.86,1,5.75,1.92,8.66,2.77c10.41,3.26,21.28,4.58,32.05,6.01c8.08,1.11,16.23,0.57,24.35,0.73
		c2.57,0.05,5.15-0.04,7.68-0.53c6.75-1.3,13.58-2.1,20.26-3.72c3.46-0.84,6.94-1.6,10.5-1.9c-10.22,4.17-21.43,4.76-32.1,7.01
		c-1.95,2.54-2.35,6.25-5.41,7.85c0.46-2.63,1.21-5.2,1.91-7.77c-11.81,0.13-23.65,0.15-35.41-1.01
		c-11.48-1.51-22.6-4.88-33.58-8.44C232.57,419.12,232.7,411.93,233.18,404.77z"/>
</g>
<g>
	<path class="st24" d="M462.4,405.45c2.44-1.61,4.95,0.19,6.12,2.44c-3.56,3.85-8.79,5.21-13.01,8.12
		c-0.43,0.01-1.29,0.03-1.72,0.04c-0.39-1.51-1.4-3.41-0.02-4.72C456.48,409.15,459.6,407.53,462.4,405.45z"/>
	<path class="st24" d="M471.09,412.14c1.77-0.03,3.38,1.61,3.16,3.41c-0.58,4.66-2.41,9.03-3.8,13.48
		c-8.4,1.21-17.24-1.85-25.32,1.58c-13.14,4.95-26.41,9.57-39.55,14.53c-1.89,0.93-3.95,0.72-5.79-0.18
		c-0.29-1.12-0.54-2.24-0.76-3.36c-0.17-1.67-0.25-3.34-0.31-5.01c1.1,1.36,2.21,2.72,3.33,4.08c14.36-4.79,28.51-10.25,42.81-15.23
		c7.5-2.16,15.32,0.25,22.93-0.93C469.28,420.5,470.31,416.34,471.09,412.14z"/>
</g>
<g>
	<path class="st25" d="M468.52,407.89c3.72,2.67,7.84,5.63,8.38,10.59c-0.63,4.86-2.12,9.6-4,14.12
		c-7.67,0.73-15.57-1.76-23.06,0.73c-11.55,4.06-22.97,8.45-34.53,12.47c-3.7,1.28-7.29,3.09-11.21,3.56
		c-2.08-0.64-2.99-2.87-4.31-4.4c1.84,0.9,3.9,1.11,5.79,0.18c13.14-4.96,26.41-9.58,39.55-14.53c8.08-3.43,16.92-0.37,25.32-1.58
		c1.39-4.45,3.22-8.82,3.8-13.48c0.22-1.8-1.39-3.44-3.16-3.41c-3.62,2.11-6.67,5.89-11.12,6.09c-1.83,0.22-3.13-1.24-4.46-2.22
		C459.73,413.1,464.96,411.74,468.52,407.89z"/>
</g>
<g>
	<path class="st26" d="M201.57,466.06c2.19-1.63,2.72-4.99,5.54-5.82c3.41-1.02,7.18,4.02,4.29,6.65c-2.39,1.29-5.02,2.11-7.42,3.4
		c-3.48,1.65-6.71,4.41-10.81,4c0.04-0.62,0.1-1.86,0.13-2.48C195.89,469.66,198.86,468.03,201.57,466.06z"/>
</g>
</svg>
