<?xml version="1.0" encoding="utf-8"?>
<!-- Generator: Adobe Illustrator 24.1.0, SVG Export Plug-In . SVG Version: 6.00 Build 0)  -->
<svg version="1.1" id="Layer_1" xmlns="http://www.w3.org/2000/svg" xmlns:xlink="http://www.w3.org/1999/xlink" x="0px" y="0px"
	 viewBox="0 0 25 21" style="enable-background:new 0 0 25 21;" xml:space="preserve">
<style type="text/css">
	.st0{fill-rule:evenodd;clip-rule:evenodd;fill:#FFFFFF;}
</style>
<path class="st0" d="M22.5,6.7l-1-4.2c-0.3-1.2-1-2.3-2.3-2.3H6.3C5,0.2,4.4,1.3,4,2.6L2.7,6.7H0.3v1.9h1v12.2h2.9v-1.9h16.8v1.9
	h2.8V8.6h1V6.7H22.5z M4.8,3.2c0.3-0.9,0.8-1.8,1.8-1.8h12.2c1,0,1.6,0.8,1.8,1.8l0.8,3.5H3.7L4.8,3.2z M2.2,13.4v-2.8
	c2.1,0.1,3.5,1,3.8,2.8H2.2z M16.6,17.1H8.2v-2h8.4V17.1z M22.5,13.4h-3.8c0.3-1.9,1.7-2.8,3.8-2.8V13.4z"/>
</svg>
