<?xml version="1.0" encoding="utf-8"?>
<!-- Generator: Adobe Illustrator 24.1.0, SVG Export Plug-In . SVG Version: 6.00 Build 0)  -->
<svg version="1.1" id="Layer_1" xmlns="http://www.w3.org/2000/svg" xmlns:xlink="http://www.w3.org/1999/xlink" x="0px" y="0px"
	 viewBox="0 0 24 23" style="enable-background:new 0 0 24 23;" xml:space="preserve">
<style type="text/css">
	.st0{fill:#FFFFFF;}
</style>
<g>
	<path class="st0" d="M3.3,0.4H17c0.8,0,1.5,0.3,2,0.8c0.5,0.5,0.8,1.3,0.8,2v8.2c0,0.8-0.3,1.5-0.8,2c-0.5,0.5-1.3,0.8-2,0.8H8.3
		L3.9,18c0,0-0.1,0.1-0.2,0.1c-0.1,0-0.1,0-0.2,0c-0.1,0-0.1,0-0.2-0.1c-0.1,0-0.1-0.1-0.1-0.1c-0.1-0.1-0.1-0.2-0.1-0.3l0.2-3.3h0
		c-0.8,0-1.5-0.3-2-0.8c-0.5-0.5-0.8-1.3-0.8-2V3.3c0-0.8,0.3-1.5,0.8-2C1.8,0.7,2.5,0.4,3.3,0.4z M21.3,6.4c0.6,0.1,1.2,0.5,1.6,1
		c0.4,0.5,0.6,1.1,0.7,1.8V16c0,0.7-0.3,1.4-0.8,2c-0.5,0.5-1.2,0.8-2,0.8h-0.1l0.2,3.4c0,0.1,0,0.2-0.1,0.2c0,0.1-0.1,0.1-0.2,0.2
		c-0.1,0-0.2,0.1-0.2,0c-0.1,0-0.2,0-0.2-0.1l-4.4-3.8H6.3l2.9-2.9h9.7c0.6,0,1.2-0.3,1.7-0.7c0.4-0.4,0.7-1,0.7-1.7V6.6
		C21.3,6.5,21.3,6.5,21.3,6.4L21.3,6.4z M6.2,9.2c-0.1,0-0.1,0-0.2,0c-0.1,0-0.1-0.1-0.2-0.1c0,0-0.1-0.1-0.1-0.2c0-0.1,0-0.1,0-0.2
		c0-0.1,0-0.1,0-0.2c0-0.1,0.1-0.1,0.1-0.2c0,0,0.1-0.1,0.2-0.1c0.1,0,0.1,0,0.2,0h6.4c0.1,0,0.1,0,0.2,0c0.1,0,0.1,0.1,0.2,0.1
		c0,0,0.1,0.1,0.1,0.2c0,0.1,0,0.1,0,0.2c0,0.1,0,0.1,0,0.2C13,9,13,9.1,12.9,9.1c0,0-0.1,0.1-0.2,0.1c-0.1,0-0.1,0-0.2,0H6.2z
		 M6.2,6C6.1,6,6,5.9,6,5.9S5.8,5.9,5.8,5.8c0,0-0.1-0.1-0.1-0.2c0-0.1,0-0.1,0-0.2c0-0.1,0-0.1,0-0.2c0-0.1,0.1-0.1,0.1-0.2
		C5.8,5.1,5.9,5,6,5C6,5,6.1,5,6.2,5h8.5c0.1,0,0.1,0,0.2,0c0.1,0,0.1,0.1,0.2,0.1c0,0,0.1,0.1,0.1,0.2c0,0.1,0,0.1,0,0.2
		c0,0.1,0,0.1,0,0.2c0,0.1-0.1,0.1-0.1,0.2c0,0-0.1,0.1-0.2,0.1c-0.1,0-0.1,0-0.2,0H6.2z M17,1.4H3.3c-0.5,0-1,0.2-1.4,0.6
		S1.4,2.8,1.4,3.3v8.2c0,0.5,0.2,1,0.6,1.3c0.4,0.4,0.8,0.6,1.4,0.6h0.6c0.1,0,0.2,0.1,0.3,0.2c0.1,0.1,0.1,0.2,0.1,0.3l-0.2,2.7
		l3.6-3.1c0.1-0.1,0.2-0.1,0.3-0.1H17c0.5,0,1-0.2,1.4-0.6c0.4-0.4,0.6-0.8,0.6-1.3V3.3c0-0.5-0.2-1-0.6-1.3S17.5,1.4,17,1.4z"/>
</g>
</svg>
