<?xml version="1.0" encoding="utf-8"?>
<!-- Generator: Adobe Illustrator 24.1.0, SVG Export Plug-In . SVG Version: 6.00 Build 0)  -->
<svg version="1.1" id="Layer_1" xmlns="http://www.w3.org/2000/svg" xmlns:xlink="http://www.w3.org/1999/xlink" x="0px" y="0px"
	 viewBox="0 0 23 18" style="enable-background:new 0 0 23 18;" xml:space="preserve">
<style type="text/css">
	.st0{fill-rule:evenodd;clip-rule:evenodd;fill:#FFFFFF;}
</style>
<g>
	<path class="st0" d="M2.6,17.4h17.8c1,0,1.8-0.8,1.8-1.7c0-0.9-0.8-1.7-1.8-1.7H2.6c-1,0-1.8,0.8-1.8,1.7
		C0.8,16.6,1.6,17.4,2.6,17.4z M2.6,4h17.8c1,0,1.8-0.8,1.8-1.7c0-0.9-0.8-1.7-1.8-1.7H2.6c-1,0-1.8,0.8-1.8,1.7
		C0.8,3.2,1.6,4,2.6,4z M2.6,10.7h17.8c1,0,1.8-0.8,1.8-1.7s-0.8-1.7-1.8-1.7H2.6c-1,0-1.8,0.8-1.8,1.7S1.6,10.7,2.6,10.7z"/>
</g>
</svg>
