<?xml version="1.0" encoding="utf-8"?>
<!-- Generator: Adobe Illustrator 24.3.0, SVG Export Plug-In . SVG Version: 6.00 Build 0)  -->
<svg version="1.1" id="Layer_1" xmlns="http://www.w3.org/2000/svg" xmlns:xlink="http://www.w3.org/1999/xlink" x="0px" y="0px"
	 viewBox="0 0 223 195" style="enable-background:new 0 0 223 195;" xml:space="preserve">
<style type="text/css">
	.st0{fill:#F4F4F4;}
	.st1{fill:#E9F4FD;}
	.st2{fill:#F2F3F3;}
	.st3{fill:#E6E7E9;}
	.st4{fill:#E7E8EA;}
	.st5{fill:#E7F3FC;}
	.st6{fill:#E7E8E9;}
	.st7{fill:#F5F6F5;}
	.st8{fill:#CAEDC8;}
	.st9{fill:#C9F0C6;}
	.st10{fill:#C5EDC6;}
	.st11{fill:#C4EAC2;}
	.st12{fill:#C9EBCA;}
	.st13{fill:#C6ECC6;}
	.st14{fill:#CCEACE;}
	.st15{fill:#C2E5C2;}
	.st16{fill:#B7B8BA;}
	.st17{fill:#C5EAC3;}
	.st18{fill:#EBEBEB;}
	.st19{fill:#B21215;}
	.st20{fill:#FFFFFF;}
	.st21{font-family:'MyriadPro-Bold';}
	.st22{font-size:20.082px;}
</style>
<g>
	<path class="st0" d="M60.43,52.8c1.58-4.49-0.17-9.67,2.15-13.85c1.9,4.56,1.31,9.67,1.84,14.49c0.19,23.35-0.02,46.71,0.06,70.06
		c-0.05,5.69,1.03,11.52-0.2,17.12c-1.12,1.73-2.33,3.39-3.52,5.08c-3.2-0.58-6.41-1.12-9.6-1.75c1.93-0.37,3.88-0.65,5.83-0.85
		c-0.56-1.39-1.13-2.78-1.69-4.17c3.45,0.38,7.05-1.18,8.58-4.41c0.59-2.36-0.09-4.77-0.43-7.11c-3.8,1.01-6.28,4.05-7.93,7.44
		c-3.56-1.68-7.49-2.15-11.39-1.75c2.13-0.57,4.25-1.2,6.36-1.81c-0.93-0.63-1.88-1.25-2.81-1.87c2.7-1.31,6.01-2.53,7.14-5.59
		c0.72-2.04-0.76-3.9-1.6-5.64l-0.54-0.96c2.14,0.37,5.05,3.18,6.72,0.67c-1.49-0.88-2.99-1.74-4.49-2.6
		c2.95-2.14,1.35-5.81,1.43-8.8c-0.07-9.98,0.02-19.97,0.04-29.95c0.08-3.06-1.22-5.9-1.8-8.85c1.8-0.2,3.6-0.47,5.4-0.74
		c1.18-3.59,2.36-7.8,0.33-11.32c-1.53-1.32-3.45-2.04-5.24-2.93C56.86,52.74,58.65,52.76,60.43,52.8z"/>
</g>
<g>
	<path class="st1" d="M42.48,47.37c2.22-0.56,4.84-1.05,6.93,0.21c1.86,1.75,3.07,4.31,5.66,5.13c1.79,0.89,3.71,1.61,5.24,2.93
		c2.03,3.52,0.85,7.73-0.33,11.32c-1.8,0.27-3.6,0.54-5.4,0.74c-5.04,0.3-10.07-0.29-15.11-0.4c-3.16-0.21-6.82-0.1-9.31-2.41
		c-2.59-2.31-1.37-6.09-1.4-9.1c2.38-1.64,5.24-2.15,7.88-3.15C38.59,50.88,39.61,47.86,42.48,47.37z"/>
</g>
<g>
	<path class="st2" d="M144.4,48.94c3.68,0.4,7.47,0.54,10.99-0.8c2.05,2.02-0.89,3.55-2.11,4.91c0.45,1.84,0.42,3.73-0.16,5.54
		c0.57,0.7,1.14,1.4,1.71,2.1c-0.3,1.57-0.55,3.16-0.37,4.76c0.53,5.37,0.1,10.77,0.6,16.14c-0.61,3.5-3.7,5.44-6.27,7.49
		c-0.85-12.72,0.09-25.49-0.54-38.22c-1.62-0.39-3.25-0.78-4.85-1.22L144.4,48.94z"/>
</g>
<g>
	<path class="st3" d="M78.93,51.95c1.97-1.21,4.37-0.86,6.57-0.94c14.66,0.14,29.32,0.06,43.98,0.04c2.65,0.1,6.09,0.17,7.56,2.79
		c2.05,2.96,0.13,8.11-3.63,8.35c-9.6,1.15-19.27-0.23-28.9,0.24c-7.35,0.42-14.71-0.09-22.07-0.1c-2.36,0.25-4.42-1.18-5.67-3.08
		C76.44,56.77,76.06,53.08,78.93,51.95z"/>
</g>
<g>
	<path class="st4" d="M80.75,70.86c1.56-0.34,3.16-0.39,4.75-0.42c14.68,0.11,29.37,0.01,44.05,0.05c2.5,0.24,6.08-0.03,7.3,2.7
		c1.21,2,1.55,4.71-0.05,6.61c-1.92,2.51-5.37,2.51-8.23,2.54c-14.35-0.09-28.7,0.01-43.05-0.02c-3.06-0.09-6.97-0.07-8.71-3.11
		C75.76,75.94,76.58,71.12,80.75,70.86z"/>
	<path class="st4" d="M78.97,112.09c1.99-1.04,4.38-0.75,6.56-0.91c14.64,0,29.28,0,43.93,0.02c2.47,0.12,5.64-0.22,7,2.37
		c2.33,2.56,1.43,6.69-1.33,8.51c-1.71,0.91-3.71,0.73-5.57,0.82c-14.67-0.09-29.34-0.07-44,0c-3.04-0.03-6.49-0.32-8.71-2.65
		C76.09,117.4,75.86,113.6,78.97,112.09z"/>
</g>
<g>
	<path class="st5" d="M155.06,81.59c1.06-2.36,4.29-2,6.44-2.23c5.84-0.62,10.04,4.75,11.6,9.78c3.46,0.19,7.49-0.23,10.08,2.58
		c3.47,2.64,3.73,7.52,2.76,11.42c-1.47,2.34-3.49,4.39-5.84,5.84c-2.92,0.59-5.92,0.26-8.86,0.29c-7.59,0.07-15.23-0.75-22.77,0.42
		c-0.06-6.84-0.87-13.88,0.32-20.61C151.36,87.03,154.45,85.09,155.06,81.59z"/>
</g>
<g>
	<path class="st6" d="M76.47,94.44c2.18-2.08,4.98-3.22,8.02-2.82c16.02,0.23,32.05-0.07,48.06,0.16c4.55-0.05,7.02,6.39,3.79,9.54
		c-1.86,2.39-5.12,2.1-7.81,2.18c-14.69-0.22-29.38,0-44.06-0.11c-2.15-0.13-4.65,0.1-6.26-1.63
		C75.85,100.08,76.68,96.9,76.47,94.44z"/>
</g>
<g>
	<path class="st7" d="M148.47,109.69c7.54-1.17,15.18-0.35,22.77-0.42c-3.16,1.82-6.9,1.24-10.38,1.49
		c0.65,6.49,0.06,13.12,1.94,19.45c-0.65-0.39-1.94-1.17-2.59-1.57c-1.02,1.5-2.84,2.85-2.36,4.91c0.4,1.87,1.28,3.58,2.05,5.32
		c-0.16,0.36-0.47,1.09-0.63,1.45c1.15,2,4.1,4,2.75,6.56c-0.65,2.13-3.23,1.53-4.92,2.02c0.76,2.01,2.15,4.17,1.07,6.34
		c-1.79,4.12-0.97,8.85-2.94,12.91c-1.48,3.04-2.44,6.85-5.95,8.15c-0.82,1.16-1.28,2.71-2.66,3.33c-3.21,1.68-6.52,3.36-10.15,3.87
		c-3.1,0.31-5.78,2.39-8.96,2.16c-12.65-0.09-25.31-0.06-37.96,0c-3.21,0.33-5.83-2.15-9-2c-5.35,0.42-9.78-3.06-14.72-4.52
		c-3.97-5.91-9.03-11.35-10.37-18.61c0.55-1.08,1.12-2.15,1.68-3.23c-1.37-2.07-3.57-3.21-5.86-3.97c-0.07-0.63-0.21-1.89-0.28-2.52
		c3.33,1.59,6.94,0.19,10.39,0.57c1.14,2.79,1.79,5.75,2.73,8.62c0.55,1.62,1.17,3.27,2.23,4.63c1.86,1.59,4.73,1.43,6.48,3.19
		c3.6,4.15,9.56,4.55,14.67,4.93c12.67-0.01,25.35-0.08,38.03,0.01c5.58,0.12,11.12-1.62,15.64-4.91c2.36-1.81,5.23-3.2,6.94-5.7
		c0.81-6.35-0.19-12.8,0.5-19.18c0.86,0.05,1.73,0.08,2.59,0.1c1.28,1.28,2.5,2.66,4,3.69c2.18,0.85,4.47,0.02,6.44-0.96
		c-1.68-3.41-4.65-5.93-8.53-6.26c-0.39-3.44-0.77-7.31-4.22-9.09l-0.38-0.31C148.23,123.33,148.32,116.5,148.47,109.69z"/>
</g>
<g>
	<path class="st8" d="M31.78,111.37c1.8-2.55,4.5-0.87,6.23,0.72c0.13,1.55,0.06,3.1-0.09,4.65
		C35.26,115.74,32.9,114.08,31.78,111.37z"/>
</g>
<g>
	<path class="st9" d="M44.03,111.87c0.95,0.03,1.89,0.07,2.84,0.13c0.09,2.65,0.59,6.09-2.52,7.23c-2.94,1.07-6.61,4.6-9.54,1.9
		c-1.33-3.76,3.83-3.96,6.26-4.51C42.31,115.28,42.77,113.27,44.03,111.87z"/>
</g>
<g>
	<path class="st10" d="M53.22,118.19c0.84,1.74,2.32,3.6,1.6,5.64c-1.13,3.06-4.44,4.28-7.14,5.59c-3.36,1.98-7,0.06-9.14-2.73
		c2.81-2.42,6.49-2.92,10.07-2.68C49.48,121.58,50.97,119.51,53.22,118.19z"/>
</g>
<g>
	<path class="st11" d="M55.52,134.85c1.65-3.39,4.13-6.43,7.93-7.44c0.34,2.34,1.02,4.75,0.43,7.11c-1.53,3.23-5.13,4.79-8.58,4.41
		c-3.43-0.14-7,2.05-10.16-0.18c-2.09-1.17-1.22-3.79-1.01-5.65C48.03,132.7,51.96,133.17,55.52,134.85z"/>
</g>
<g>
	<path class="st12" d="M167.99,127.9c1.04-0.1,2.09-0.19,3.13-0.28c0.63,2.3,0.59,4.97,2.35,6.8c1.32,1.3,1.85,3.04,1.99,4.86
		C169.69,140.05,166.71,132.68,167.99,127.9z"/>
</g>
<g>
	<path class="st13" d="M157.85,133.55c-0.48-2.06,1.34-3.41,2.36-4.91c0.65,0.4,1.94,1.18,2.59,1.57c0.06,1.63,0.09,3.27,0.16,4.9
		c2.52,1.62,5.87,3.38,5.29,6.98c-3.25,0.48-6.63-0.12-8.35-3.22C159.13,137.13,158.25,135.42,157.85,133.55z"/>
</g>
<g>
	<path class="st14" d="M173.99,133.54c0.99-2.87,3.81-3.18,6.45-2.67c1.29,1.68-0.32,3.55-1.92,4.19
		C176.8,135.46,175.39,134.29,173.99,133.54z"/>
</g>
<g>
	<path class="st15" d="M148.89,130.45c3.45,1.78,3.83,5.65,4.22,9.09c3.88,0.33,6.85,2.85,8.53,6.26c-1.97,0.98-4.26,1.81-6.44,0.96
		c-1.5-1.03-2.72-2.41-4-3.69c-0.86-0.02-1.73-0.05-2.59-0.1C148.28,138.8,148.21,134.6,148.89,130.45z"/>
</g>
<g>
	<path class="st16" d="M81.86,135.14c14.52-0.81,29.13-0.09,43.69-0.36c3.87-0.07,8.86-0.4,11.08,3.52
		c3.45,4.67-0.21,12.24-6.06,12.13c-15.38,0.01-30.77,0.06-46.14-0.03c-3.89,0.26-7.88-2.81-8.02-6.82
		C75.63,139.86,78.39,136.17,81.86,135.14z"/>
</g>
<g>
	<path class="st17" d="M60.76,145.7c1.19-1.69,2.4-3.35,3.52-5.08c0.71,6.45-0.73,12.9-0.16,19.38c-0.94-2.87-1.59-5.83-2.73-8.62
		c-3.45-0.38-7.06,1.02-10.39-0.57c-1.17-1.07-2.21-2.27-3.28-3.42c1.12-1.17,2.28-2.31,3.44-3.44
		C54.35,144.58,57.56,145.12,60.76,145.7z"/>
</g>
<g>
	<path class="st18" d="M72.83,167.82c2.54-0.32,5.09-0.53,7.66-0.54c17.33-0.03,34.66,0,51.99,0c2.91-0.01,5.8,0.22,8.69,0.57
		c-4.52,3.29-10.06,5.03-15.64,4.91c-12.68-0.09-25.36-0.02-38.03-0.01C82.39,172.37,76.43,171.97,72.83,167.82z"/>
</g>
<circle class="st19" cx="147.15" cy="38.09" r="11.33"/>
<text transform="matrix(1 0 0 1 141.0732 43.4175)" class="st20 st21 st22">+</text>
</svg>
