<?xml version="1.0" encoding="utf-8"?>
<!-- Generator: Adobe Illustrator 24.1.0, SVG Export Plug-In . SVG Version: 6.00 Build 0)  -->
<svg version="1.1" id="Layer_1" xmlns="http://www.w3.org/2000/svg" xmlns:xlink="http://www.w3.org/1999/xlink" x="0px" y="0px"
	 viewBox="0 0 22 22" style="enable-background:new 0 0 22 22;" xml:space="preserve">
<style type="text/css">
	.st0{fill:#FFFFFF;}
</style>
<g>
	<path class="st0" d="M0,1c0.1-0.6,0.7-1,1.3-1c5.3,0,10.7,0,16,0c0.5,0,1,0.3,1.2,0.7c0.1,0.3,0.2,0.6,0.1,0.9c0,2.9,0,5.7,0,8.6
		c0,0.2,0,0.4-0.2,0.4c-0.2,0.1-0.4,0.1-0.6-0.1c-0.1-0.1-0.1-0.2-0.1-0.3c0-1.8,0-3.7,0-5.5c-5.6,0-11.3,0-16.9,0
		c0,3.6,0,7.1,0,10.7c0,0.2,0,0.3,0.2,0.4c0.2,0.1,0.4,0.1,0.6,0.1c3.7,0,7.3,0,11,0c-0.2-0.9-0.5-1.7-0.7-2.6c-3.1,0-6.1,0-9.2,0
		c-0.1,0-0.3,0-0.4-0.1C2,13,2,12.9,2,12.8c0-2.1,0-4.2,0-6.4C2,6.3,2,6.1,2.1,6c0.1-0.1,0.2-0.1,0.4-0.1c3.5,0,7,0,10.5,0
		c0.2,0,0.3,0,0.4,0.2c0.1,0.1,0.1,0.3,0.1,0.5c0,1.8,0,3.6,0,5.4c2.1,0.6,4.1,1.2,6.2,1.8c0.2,0,0.3,0.2,0.3,0.4
		c0,0.2-0.1,0.3-0.2,0.4c-0.3,0.3-0.7,0.7-1,1c1,1,1.9,1.9,2.9,2.9c0.1,0.1,0.2,0.2,0.2,0.3c0,0.1-0.1,0.3-0.2,0.4
		c-0.9,0.9-1.9,1.9-2.8,2.8c-0.1,0.1-0.1,0.1-0.2,0.1h-0.4c-0.1,0-0.1-0.1-0.2-0.2c-0.9-1-1.9-1.9-2.8-2.9c-0.3,0.3-0.7,0.7-1,1
		c-0.1,0.2-0.4,0.2-0.6,0.1c-0.1-0.1-0.2-0.2-0.2-0.3c-0.3-1-0.6-2-0.9-3c-3.7,0-7.4,0-11.1,0c-0.3,0-0.6,0-0.9-0.1
		c-0.4-0.1-0.7-0.5-0.8-0.9V1z M1,1C0.9,1.1,0.8,1.3,0.8,1.4c0,0.8,0,1.6,0,2.4c5.6,0,11.3,0,16.9,0c0-0.8,0-1.6,0-2.4
		c0-0.1,0-0.3-0.1-0.4c-0.1-0.1-0.2-0.1-0.4-0.1c-5.2,0-10.5,0-15.7,0C1.3,0.9,1.1,0.9,1,1z M2.9,6.7c0,1.9,0,3.8,0,5.7
		c2.9,0,5.8,0,8.6,0c0-0.2-0.1-0.4-0.1-0.6c0-0.3,0.3-0.5,0.5-0.4c0.3,0.1,0.5,0.1,0.8,0.2c0-1.6,0-3.3,0-4.9
		C9.4,6.7,6.1,6.7,2.9,6.7z M12.4,12.5c0.6,2.1,1.2,4.3,1.8,6.4c0.3-0.3,0.5-0.5,0.8-0.8c0.2-0.2,0.5-0.2,0.7,0c1,1,1.9,1.9,2.9,2.9
		c0.8-0.8,1.5-1.5,2.3-2.3c-1-1-1.9-1.9-2.9-2.9c-0.2-0.2-0.2-0.4,0-0.6c0.3-0.3,0.6-0.6,0.8-0.8C16.7,13.7,14.6,13.1,12.4,12.5z"/>
	<path class="st0" d="M2.5,2c0.3-0.1,0.6,0.2,0.5,0.5c0,0.3-0.5,0.5-0.7,0.2C2.1,2.5,2.2,2,2.5,2z"/>
	<path class="st0" d="M4.4,2C4.7,1.8,5.1,2.1,5,2.5C5,2.8,4.5,2.9,4.3,2.7C4.1,2.5,4.2,2.1,4.4,2z"/>
	<path class="st0" d="M6.4,2C6.7,1.8,7,2.1,7,2.5c0,0.3-0.5,0.4-0.7,0.2C6,2.5,6.1,2,6.4,2z"/>
	<path class="st0" d="M9.8,2c0.1,0,0.3,0,0.5,0c1.9,0,3.7,0,5.6,0c0.2,0,0.3,0,0.4,0.2c0.1,0.2,0.1,0.5-0.1,0.6
		c-0.1,0.1-0.3,0.1-0.4,0.1c-1.9,0-3.8,0-5.8,0c-0.2,0-0.4-0.1-0.4-0.3C9.4,2.3,9.6,2,9.8,2z"/>
	<path class="st0" d="M5.5,7.9c0.1-0.3,0.4-0.4,0.6-0.2C6.2,7.7,6.3,7.9,6.3,8c0.3,1,0.7,2,1,2.9c0,0.1,0.1,0.3,0,0.4
		c-0.1,0.2-0.4,0.3-0.6,0.2c-0.1-0.1-0.2-0.2-0.2-0.3c-0.4,0-0.8,0-1.2,0c-0.1,0.1-0.1,0.2-0.2,0.3c-0.2,0.2-0.5,0.1-0.6-0.2
		c-0.1-0.1,0-0.3,0-0.4C4.8,9.9,5.1,8.9,5.5,7.9z M5.9,9.4C5.8,9.7,5.7,10,5.6,10.3c0.2,0,0.4,0,0.6,0C6.1,10,6,9.7,5.9,9.4z"/>
	<path class="st0" d="M8.5,7.6c0.5,0,0.9,0,1.4,0.1c0.5,0.2,1,0.7,1.2,1.2c0.2,0.4,0.1,0.9,0,1.3c-0.2,0.5-0.5,0.9-1,1.1
		c-0.3,0.2-0.7,0.2-1.1,0.2c-0.2,0-0.4,0-0.6-0.1c-0.1-0.1-0.2-0.3-0.2-0.4c0-1,0-2,0-3C8.2,7.9,8.3,7.7,8.5,7.6z M9.1,8.5
		c0,0.7,0,1.5,0,2.2c0.3,0,0.7-0.1,0.9-0.4c0.3-0.4,0.4-1,0.1-1.4C9.9,8.6,9.5,8.4,9.1,8.5z"/>
	<path class="st0" d="M18,11.6c0.3-0.1,0.6,0.2,0.6,0.5c0,0.3-0.4,0.5-0.7,0.3C17.7,12.1,17.7,11.7,18,11.6z"/>
	<path class="st0" d="M2.4,14.2c0.1,0,0.3,0,0.5,0c0.8,0,1.6,0,2.5,0c0.1,0,0.3,0,0.4,0.1c0.2,0.1,0.2,0.4,0.1,0.6
		C5.7,15,5.5,15,5.4,15c-0.9,0-1.9,0-2.8,0c-0.2,0-0.4-0.1-0.4-0.2C2,14.5,2.1,14.2,2.4,14.2z"/>
	<path class="st0" d="M7,14.2c0.3-0.1,0.6,0.2,0.5,0.5c-0.1,0.3-0.4,0.4-0.7,0.2C6.6,14.7,6.7,14.2,7,14.2z"/>
</g>
</svg>
