<?xml version="1.0" encoding="utf-8"?>
<!-- Generator: Adobe Illustrator 24.3.0, SVG Export Plug-In . SVG Version: 6.00 Build 0)  -->
<svg version="1.1" id="Layer_1" xmlns="http://www.w3.org/2000/svg" xmlns:xlink="http://www.w3.org/1999/xlink" x="0px" y="0px"
	 viewBox="0 0 800 800" style="enable-background:new 0 0 800 800;" xml:space="preserve">
<g>
	<g>
		<g>
			<path d="M0,601.23c0,24.54,19.9,44.43,44.43,44.43h447.79v-88.87H44.43C19.9,556.79,0,576.69,0,601.23z"/>
			<path d="M0,422.9c0,24.54,19.9,44.44,44.43,44.44h447.79v-88.87H44.43C19.9,378.47,0,398.36,0,422.9z"/>
			<path d="M44.43,289.01H364.9c-9.6-16.51-14.74-35.32-14.74-54.93c0-11.71,1.86-23.12,5.37-33.95H44.43
				C19.9,200.14,0,220.04,0,244.58S19.9,289.01,44.43,289.01L44.43,289.01L44.43,289.01z"/>
			<path d="M783.54,194.35L641.48,52.29c-21.96-21.98-57.59-21.91-79.49,0L419.94,194.35c-21.95,21.95-21.95,57.52,0,79.47
				c21.95,21.95,57.52,21.94,79.47,0l46.14-46.14v480.29c0,31.03,25.16,56.19,56.19,56.19c31.04,0,56.19-25.16,56.19-56.19V227.68
				l46.14,46.14c21.95,21.95,57.53,21.95,79.47,0C805.49,251.88,805.49,216.3,783.54,194.35z"/>
		</g>
	</g>
</g>
</svg>
