<?xml version="1.0" encoding="UTF-8" ?>
<!DOCTYPE svg PUBLIC "-//W3C//DTD SVG 1.1//EN" "http://www.w3.org/Graphics/SVG/1.1/DTD/svg11.dtd">
<svg width="512pt" height="512pt" viewBox="0 0 512 512" version="1.1" xmlns="http://www.w3.org/2000/svg">
<g id="#000000ff">
<path fill="#000000" opacity="1.00" d=" M 338.51 0.00 L 342.31 0.00 C 351.36 0.44 360.80 1.53 368.71 6.29 C 373.02 8.87 376.64 13.05 377.37 18.15 C 378.42 24.94 378.83 31.81 379.62 38.64 C 387.13 42.08 394.28 46.20 401.00 51.01 C 406.80 48.46 412.55 45.78 418.38 43.29 C 422.63 41.42 427.63 41.21 431.93 43.06 C 438.47 45.65 443.24 51.08 447.66 56.33 C 454.69 65.67 460.70 76.21 462.64 87.88 C 463.70 94.39 462.93 102.03 457.68 106.62 C 452.21 111.17 446.21 115.02 440.53 119.27 C 441.29 127.53 441.33 135.82 440.55 144.08 C 446.16 148.30 452.06 152.14 457.49 156.59 C 463.49 161.67 463.79 170.43 462.28 177.57 C 458.96 191.88 450.77 204.79 440.36 215.03 C 448.04 235.49 453.04 257.07 453.73 278.96 C 454.67 293.87 453.16 308.79 450.95 323.53 C 456.30 323.46 461.66 323.66 467.01 323.49 C 472.12 323.49 476.84 319.71 478.30 314.87 C 479.25 311.66 479.12 308.28 479.15 304.97 C 479.06 289.31 479.19 273.65 479.10 257.99 C 479.20 253.35 477.24 248.40 473.01 246.12 C 469.06 243.97 464.19 241.92 463.09 237.04 C 460.32 229.22 467.88 220.16 476.13 222.09 C 486.90 224.52 495.88 232.93 499.96 243.08 C 502.19 248.43 502.76 254.29 502.70 260.03 C 502.65 276.69 502.75 293.36 502.65 310.02 C 502.59 318.47 499.96 327.00 494.60 333.61 C 488.49 341.40 478.97 346.38 469.07 346.89 C 461.10 347.33 453.12 346.99 445.14 347.09 C 438.18 367.54 428.69 387.25 415.69 404.58 C 390.80 439.15 354.04 464.66 313.43 477.20 C 312.22 487.51 307.11 497.41 298.83 503.79 C 292.45 508.89 284.40 511.62 276.28 512.00 L 236.69 512.00 C 222.47 511.71 208.77 503.15 202.82 490.15 C 197.82 479.68 198.05 466.87 203.50 456.61 C 208.21 447.51 216.74 440.44 226.63 437.69 C 234.21 435.55 242.16 436.17 249.94 436.09 C 259.45 436.19 268.98 435.87 278.49 436.26 C 290.58 436.96 301.74 444.05 308.15 454.22 C 332.09 446.63 354.50 434.09 373.08 417.15 C 404.26 389.19 424.63 349.54 429.27 307.93 C 432.86 277.95 428.23 247.21 416.68 219.37 C 411.51 217.06 406.35 214.75 401.19 212.43 C 394.41 217.29 387.22 221.50 379.61 224.91 C 378.79 231.59 378.43 238.32 377.41 244.97 C 376.81 249.58 373.86 253.53 370.13 256.14 C 363.35 260.80 354.99 262.42 346.92 263.07 C 336.48 263.71 325.63 263.23 315.83 259.22 C 310.09 256.86 304.40 252.48 303.17 246.05 C 301.93 239.07 301.62 231.97 300.76 224.95 C 293.17 221.48 285.96 217.31 279.19 212.44 C 272.71 215.20 266.41 218.40 259.82 220.88 C 253.22 223.15 246.23 220.09 241.12 215.93 C 231.89 208.36 225.67 197.78 221.11 186.90 C 218.83 180.56 216.59 173.86 217.50 167.02 C 218.04 162.37 220.62 158.06 224.39 155.30 C 229.48 151.49 234.70 147.85 239.82 144.09 C 239.00 135.83 239.05 127.53 239.85 119.27 C 234.44 115.29 228.86 111.53 223.58 107.39 C 219.47 104.30 217.44 99.14 217.34 94.10 C 217.05 84.57 220.93 75.54 225.36 67.32 C 229.90 59.27 235.41 51.45 243.01 46.02 C 247.93 42.55 254.43 40.36 260.31 42.66 C 266.80 45.15 273.01 48.33 279.44 50.99 C 286.08 46.13 293.23 42.07 300.72 38.67 C 301.55 31.76 301.95 24.79 303.05 17.92 C 303.83 12.75 307.62 8.57 312.04 6.06 C 320.03 1.45 329.45 0.36 338.51 0.00 M 325.77 25.53 C 324.98 32.98 324.28 40.45 323.42 47.89 C 323.05 52.02 320.52 55.93 316.69 57.63 C 312.77 59.46 308.60 60.74 304.79 62.81 C 298.96 65.69 293.78 69.64 288.73 73.68 C 285.34 76.50 280.47 77.25 276.42 75.44 C 269.37 72.46 262.44 69.19 255.42 66.12 C 248.60 73.02 243.57 81.70 241.01 91.06 C 246.78 95.29 252.62 99.44 258.41 103.65 C 261.49 105.82 264.09 109.10 264.26 113.00 C 264.37 117.39 263.08 121.66 262.89 126.03 C 262.28 133.05 263.00 140.09 264.07 147.03 C 264.92 151.38 263.19 156.05 259.64 158.72 C 253.54 163.38 247.21 167.74 241.02 172.28 C 243.54 181.66 248.60 190.34 255.42 197.25 C 261.61 194.49 267.79 191.73 273.97 188.94 C 276.80 187.66 279.91 186.52 283.06 187.21 C 286.51 187.74 289.15 190.20 291.78 192.28 C 298.63 197.94 306.59 202.09 314.90 205.13 C 319.16 206.56 322.67 210.22 323.29 214.76 C 324.32 222.41 324.93 230.11 325.74 237.79 C 335.11 240.44 345.21 240.31 354.60 237.85 C 355.50 229.95 356.04 222.00 357.21 214.13 C 357.96 209.60 361.76 206.32 365.96 204.93 C 375.21 201.65 383.76 196.56 391.22 190.20 C 394.65 187.16 399.70 186.07 403.96 187.95 C 411.00 190.91 417.91 194.19 424.91 197.25 C 431.79 190.39 436.76 181.64 439.32 172.28 C 433.23 167.82 427.03 163.50 420.99 158.96 C 417.24 156.28 415.38 151.44 416.31 146.93 C 417.72 138.37 418.25 129.60 416.90 120.99 C 416.37 117.08 415.29 112.81 417.14 109.08 C 418.31 106.40 420.68 104.58 422.97 102.90 C 428.44 98.98 433.88 95.03 439.33 91.08 C 436.75 81.72 431.79 72.98 424.91 66.12 C 417.53 69.30 410.31 72.89 402.83 75.82 C 398.16 77.61 393.24 75.41 389.76 72.26 C 382.63 66.23 374.35 61.65 365.57 58.50 C 361.37 57.09 357.79 53.59 357.16 49.09 C 355.99 41.27 355.51 33.36 354.59 25.51 C 345.21 23.03 335.14 22.99 325.77 25.53 M 232.33 460.50 C 225.66 462.67 221.39 470.23 223.04 477.07 C 224.30 483.53 230.49 488.50 237.08 488.40 C 250.00 488.46 262.93 488.49 275.85 488.38 C 283.06 488.39 289.43 482.21 289.90 475.07 C 290.74 467.18 283.82 459.73 275.92 459.77 C 264.95 459.49 253.97 459.76 242.99 459.65 C 239.43 459.68 235.77 459.38 232.33 460.50 Z" />
<path fill="#000000" opacity="1.00" d=" M 332.50 87.79 C 342.06 86.17 352.17 87.64 360.76 92.18 C 371.83 97.85 380.24 108.41 383.39 120.43 C 386.15 130.91 384.98 142.41 379.98 152.04 C 374.87 162.13 365.80 170.18 355.10 173.91 C 343.60 178.07 330.36 177.15 319.55 171.42 C 310.00 166.52 302.43 157.97 298.52 147.99 C 294.71 138.12 294.51 126.91 298.05 116.93 C 303.20 101.96 316.87 90.39 332.50 87.79 M 335.18 111.20 C 326.56 113.20 319.71 121.09 319.06 129.94 C 318.14 138.77 323.51 147.78 331.69 151.21 C 339.15 154.58 348.48 153.04 354.47 147.46 C 360.66 141.93 363.01 132.61 360.18 124.81 C 356.89 114.77 345.42 108.49 335.18 111.20 Z" />
<path fill="#000000" opacity="1.00" d=" M 179.37 105.47 C 184.14 103.15 190.06 100.92 195.01 104.08 C 201.63 107.72 202.82 117.97 197.00 122.89 C 191.66 126.74 185.10 128.30 179.38 131.47 C 151.79 145.17 128.06 166.43 111.27 192.23 C 94.76 217.43 84.80 246.95 83.01 277.05 C 82.15 296.38 82.83 315.74 82.56 335.09 C 82.59 340.95 77.54 346.17 71.80 346.83 C 67.89 347.31 63.94 347.05 60.01 347.09 C 53.32 346.99 46.58 347.46 39.93 346.49 C 27.50 344.58 16.51 335.63 11.97 323.92 C 9.77 318.56 9.29 312.71 9.30 306.98 C 9.32 291.31 9.31 275.65 9.30 259.99 C 9.29 255.31 9.59 250.56 11.02 246.07 C 14.48 234.86 23.72 225.56 35.02 222.31 C 41.52 220.29 49.09 225.09 49.75 231.91 C 50.73 237.53 46.87 242.86 41.70 244.76 C 36.69 246.69 32.89 251.52 32.95 257.01 C 32.79 274.67 32.90 292.35 32.89 310.02 C 32.62 316.23 37.48 322.11 43.53 323.31 C 48.67 323.86 53.86 323.44 59.02 323.56 C 59.32 302.90 58.08 282.12 60.81 261.57 C 65.15 227.07 79.00 193.84 100.38 166.42 C 120.88 139.76 148.35 118.49 179.37 105.47 Z" />
</g>
</svg>
